G04 DipTrace 3.0.0.2*
G04 Bottom.gbr*
%MOIN*%
G04 #@! TF.FileFunction,Copper,L2,Bot*
G04 #@! TF.Part,Single*
G04 #@! TA.AperFunction,Conductor*
%ADD14C,0.01*%
%ADD15R,0.03937X0.043307*%
G04 #@! TA.AperFunction,ComponentPad*
%ADD16C,0.074803*%
%ADD17C,0.15748*%
%ADD18C,0.11811*%
%ADD19C,0.059055*%
%FSLAX26Y26*%
G04*
G70*
G90*
G75*
G01*
G04 Bottom*
%LPD*%
X1143870Y362507D2*
D14*
X1252619D1*
X1333986D1*
X1337241Y365762D1*
X1143870Y429436D2*
X1320757D1*
X1337241Y445920D1*
X1252619Y295577D2*
X1327112D1*
X1337241Y285448D1*
D15*
X1143870Y429436D3*
Y362507D3*
D16*
X236220Y601436D3*
Y501436D3*
Y401436D3*
Y301436D3*
Y-298564D3*
Y-398564D3*
Y-498564D3*
Y-598564D3*
Y-698564D3*
Y-798564D3*
D17*
X1507320Y95133D3*
D16*
X836220Y-698564D3*
Y-598564D3*
Y-498564D3*
Y-398564D3*
Y-298564D3*
Y-198564D3*
Y1436D3*
X836283Y201436D3*
Y301404D3*
X836220Y401436D3*
Y501436D3*
Y601436D3*
D18*
X1161046Y-68508D3*
Y-206303D3*
D16*
X0Y300000D3*
Y200000D3*
Y100000D3*
Y0D3*
Y-100000D3*
D18*
X1161046Y-344098D3*
Y-481894D3*
Y-619689D3*
Y-757484D3*
D17*
X1507320Y595133D3*
D19*
X1407320Y245133D3*
Y325448D3*
Y405762D3*
Y486077D3*
X1337241Y285448D3*
Y365762D3*
Y205133D3*
Y445920D3*
D15*
X1252619Y295577D3*
Y362507D3*
D16*
X0Y-200000D3*
M02*
