G04 DipTrace 3.0.0.2*
G04 TopSilk.gbr*
%MOIN*%
G04 #@! TF.FileFunction,Legend,Top*
G04 #@! TF.Part,Single*
%ADD32C,0.009264*%
%ADD33C,0.006176*%
%FSLAX26Y26*%
G04*
G70*
G90*
G75*
G01*
G04 TopSilk*
%LPD*%
X-256460Y314313D2*
D33*
X-258362Y318115D1*
X-262208Y321962D1*
X-266011Y323863D1*
X-273660D1*
X-277507Y321962D1*
X-281309Y318115D1*
X-283255Y314313D1*
X-285156Y308565D1*
Y298970D1*
X-283255Y293266D1*
X-281309Y289420D1*
X-277507Y285617D1*
X-273660Y283671D1*
X-266011D1*
X-262208Y285617D1*
X-258362Y289420D1*
X-256460Y293266D1*
Y298970D1*
X-266011D1*
X-217314Y323863D2*
Y283671D1*
X-244109Y323863D1*
Y283671D1*
X-204963Y323863D2*
Y283671D1*
X-191566D1*
X-185817Y285617D1*
X-181971Y289420D1*
X-180069Y293266D1*
X-178168Y298970D1*
Y308565D1*
X-180069Y314313D1*
X-181971Y318115D1*
X-185817Y321962D1*
X-191566Y323863D1*
X-204963D1*
X-241035Y218874D2*
X-260136D1*
X-262038Y201675D1*
X-260136Y203576D1*
X-254388Y205521D1*
X-248684D1*
X-242936Y203576D1*
X-239090Y199773D1*
X-237188Y194025D1*
Y190223D1*
X-239090Y184475D1*
X-242936Y180628D1*
X-248684Y178727D1*
X-254388D1*
X-260136Y180628D1*
X-262038Y182573D1*
X-263983Y186376D1*
X-224837Y218919D2*
X-209538Y178727D1*
X-194240Y218919D1*
X-261849Y110950D2*
Y70758D1*
X-248452D1*
X-242704Y72704D1*
X-238857Y76506D1*
X-236956Y80353D1*
X-235054Y86057D1*
Y95652D1*
X-236956Y101400D1*
X-238857Y105202D1*
X-242704Y109049D1*
X-248452Y110950D1*
X-261849D1*
X-222703Y103257D2*
X-218856Y105202D1*
X-213108Y110906D1*
Y70758D1*
X-189261Y110906D2*
X-195009Y109005D1*
X-198856Y103257D1*
X-200757Y93706D1*
Y87958D1*
X-198856Y78407D1*
X-195009Y72659D1*
X-189261Y70758D1*
X-185458D1*
X-179710Y72659D1*
X-175908Y78407D1*
X-173962Y87958D1*
Y93706D1*
X-175908Y103257D1*
X-179710Y109005D1*
X-185458Y110906D1*
X-189261D1*
X-175908Y103257D2*
X-198856Y78407D1*
X-252610Y12682D2*
Y-27510D1*
X-239213D1*
X-233465Y-25564D1*
X-229618Y-21762D1*
X-227717Y-17915D1*
X-225816Y-12211D1*
Y-2616D1*
X-227717Y3132D1*
X-229618Y6934D1*
X-233465Y10781D1*
X-239213Y12682D1*
X-252610D1*
X-188571Y-715D2*
X-190516Y-6463D1*
X-194319Y-10310D1*
X-200067Y-12211D1*
X-201968D1*
X-207716Y-10310D1*
X-211519Y-6463D1*
X-213464Y-715D1*
Y1186D1*
X-211519Y6934D1*
X-207716Y10737D1*
X-201968Y12638D1*
X-200067D1*
X-194319Y10737D1*
X-190516Y6934D1*
X-188571Y-715D1*
Y-10310D1*
X-190516Y-19860D1*
X-194319Y-25608D1*
X-200067Y-27510D1*
X-203869D1*
X-209617Y-25608D1*
X-211519Y-21762D1*
X-253870Y-80651D2*
Y-120843D1*
X-240473D1*
X-234725Y-118897D1*
X-230878Y-115095D1*
X-228977Y-111248D1*
X-227075Y-105544D1*
Y-95950D1*
X-228977Y-90202D1*
X-230878Y-86399D1*
X-234725Y-82552D1*
X-240473Y-80651D1*
X-253870D1*
X-191776Y-86399D2*
X-193677Y-82596D1*
X-199425Y-80695D1*
X-203228D1*
X-208976Y-82596D1*
X-212823Y-88344D1*
X-214724Y-97895D1*
Y-107446D1*
X-212823Y-115095D1*
X-208976Y-118942D1*
X-203228Y-120843D1*
X-201327D1*
X-195623Y-118942D1*
X-191776Y-115095D1*
X-189875Y-109347D1*
Y-107446D1*
X-191776Y-101698D1*
X-195623Y-97895D1*
X-201327Y-95994D1*
X-203228D1*
X-208976Y-97895D1*
X-212823Y-101698D1*
X-214724Y-107446D1*
X-253450Y-179717D2*
Y-219909D1*
X-240053D1*
X-234305Y-217963D1*
X-230458Y-214161D1*
X-228557Y-210314D1*
X-226656Y-204610D1*
Y-195015D1*
X-228557Y-189267D1*
X-230458Y-185465D1*
X-234305Y-181618D1*
X-240053Y-179717D1*
X-253450D1*
X-191356Y-185465D2*
X-193258Y-181662D1*
X-199006Y-179761D1*
X-202808D1*
X-208556Y-181662D1*
X-212403Y-187410D1*
X-214304Y-196961D1*
Y-206511D1*
X-212403Y-214161D1*
X-208556Y-218007D1*
X-202808Y-219909D1*
X-200907D1*
X-195203Y-218007D1*
X-191356Y-214161D1*
X-189455Y-208413D1*
Y-206511D1*
X-191356Y-200763D1*
X-195203Y-196961D1*
X-200907Y-195059D1*
X-202808D1*
X-208556Y-196961D1*
X-212403Y-200763D1*
X-214304Y-206511D1*
X1314498Y-730479D2*
D32*
X1337446Y-790767D1*
X1360394Y-730479D1*
X1378921D2*
X1381773Y-733331D1*
X1384691Y-730479D1*
X1381773Y-727561D1*
X1378921Y-730479D1*
X1381773Y-750575D2*
Y-790767D1*
X1403218Y-750575D2*
Y-790767D1*
Y-762049D2*
X1411840Y-753427D1*
X1417610Y-750575D1*
X1426166D1*
X1431936Y-753427D1*
X1434788Y-762049D1*
Y-790767D1*
X1346820Y-577265D2*
X1318168D1*
X1315316Y-603064D1*
X1318168Y-600212D1*
X1326790Y-597294D1*
X1335346D1*
X1343968Y-600212D1*
X1349738Y-605916D1*
X1352590Y-614538D1*
Y-620242D1*
X1349738Y-628864D1*
X1343968Y-634634D1*
X1335346Y-637486D1*
X1326790D1*
X1318168Y-634634D1*
X1315316Y-631716D1*
X1312398Y-626012D1*
X1371117Y-577198D2*
X1394065Y-637486D1*
X1417013Y-577198D1*
X1332345Y-451892D2*
X1329493Y-446188D1*
X1323723Y-440418D1*
X1318019Y-437566D1*
X1306545D1*
X1300775Y-440418D1*
X1295071Y-446188D1*
X1292153Y-451892D1*
X1289301Y-460514D1*
Y-474906D1*
X1292153Y-483461D1*
X1295071Y-489232D1*
X1300775Y-494935D1*
X1306545Y-497854D1*
X1318019D1*
X1323723Y-494935D1*
X1329493Y-489232D1*
X1332345Y-483461D1*
Y-474906D1*
X1318019D1*
X1391064Y-437566D2*
Y-497854D1*
X1350872Y-437566D1*
Y-497854D1*
X1409591Y-437566D2*
Y-497854D1*
X1429687D1*
X1438309Y-494935D1*
X1444079Y-489232D1*
X1446931Y-483461D1*
X1449783Y-474906D1*
Y-460514D1*
X1446931Y-451892D1*
X1444079Y-446188D1*
X1438309Y-440418D1*
X1429687Y-437566D1*
X1409591D1*
X1329195Y-322758D2*
X1326343Y-317054D1*
X1320573Y-311284D1*
X1314870Y-308432D1*
X1303396D1*
X1297625Y-311284D1*
X1291922Y-317054D1*
X1289003Y-322758D1*
X1286151Y-331380D1*
Y-345772D1*
X1289003Y-354328D1*
X1291922Y-360098D1*
X1297625Y-365802D1*
X1303396Y-368720D1*
X1314870D1*
X1320573Y-365802D1*
X1326343Y-360098D1*
X1329195Y-354328D1*
Y-345772D1*
X1314870D1*
X1387914Y-308432D2*
Y-368720D1*
X1347722Y-308432D1*
Y-368720D1*
X1406442Y-308432D2*
Y-368720D1*
X1426538D1*
X1435160Y-365802D1*
X1440930Y-360098D1*
X1443782Y-354328D1*
X1446634Y-345772D1*
Y-331380D1*
X1443782Y-322758D1*
X1440930Y-317054D1*
X1435160Y-311284D1*
X1426538Y-308432D1*
X1406442D1*
X1306624Y-21818D2*
Y-82106D1*
X1326720D1*
X1335342Y-79187D1*
X1341112Y-73484D1*
X1343964Y-67713D1*
X1346816Y-59158D1*
Y-44766D1*
X1343964Y-36143D1*
X1341112Y-30440D1*
X1335342Y-24670D1*
X1326720Y-21818D1*
X1306624D1*
X1394061Y-82106D2*
Y-21884D1*
X1365343Y-62010D1*
X1408387D1*
X1317123Y-147802D2*
Y-208090D1*
X1337219D1*
X1345841Y-205172D1*
X1351611Y-199468D1*
X1354463Y-193698D1*
X1357315Y-185142D1*
Y-170750D1*
X1354463Y-162128D1*
X1351611Y-156424D1*
X1345841Y-150654D1*
X1337219Y-147802D1*
X1317123D1*
X1381612Y-147868D2*
X1413115D1*
X1395938Y-170816D1*
X1404560D1*
X1410264Y-173668D1*
X1413115Y-176520D1*
X1416034Y-185142D1*
Y-190846D1*
X1413115Y-199468D1*
X1407412Y-205238D1*
X1398790Y-208090D1*
X1390168D1*
X1381612Y-205238D1*
X1378760Y-202320D1*
X1375842Y-196616D1*
X20535Y634350D2*
Y574062D1*
X40631D1*
X49253Y576981D1*
X55023Y582684D1*
X57875Y588455D1*
X60727Y597010D1*
Y611402D1*
X57875Y620024D1*
X55023Y625728D1*
X49253Y631498D1*
X40631Y634350D1*
X20535D1*
X79254Y622810D2*
X85024Y625728D1*
X93646Y634284D1*
Y574062D1*
X117943Y634284D2*
X149447D1*
X132269Y611336D1*
X140891D1*
X146595Y608484D1*
X149447Y605632D1*
X152365Y597010D1*
Y591306D1*
X149447Y582684D1*
X143743Y576914D1*
X135121Y574062D1*
X126499D1*
X117943Y576914D1*
X115091Y579832D1*
X112173Y585536D1*
M02*
